<svg id="SvgjsSvg1041" width="288" height="288" xmlns="http://www.w3.org/2000/svg" version="1.1" xmlns:xlink="http://www.w3.org/1999/xlink" xmlns:svgjs="http://svgjs.com/svgjs"><defs id="SvgjsDefs1042"></defs><g id="SvgjsG1043"><svg xmlns="http://www.w3.org/2000/svg" viewBox="0 0 32 32" width="288" height="288"><path fill="#ffffff" d="M16 31.49C7.453 31.49.5 24.537.5 15.99S7.453.49 16 .49s15.5 6.953 15.5 15.5-6.953 15.5-15.5 15.5z" class="colorFFF svgShape"></path><path fill="#717171" d="M16 .99c8.271 0 15 6.729 15 15s-6.729 15-15 15-15-6.729-15-15 6.729-15 15-15m0-1c-8.837 0-16 7.163-16 16 0 8.836 7.163 16 16 16s16-7.164 16-16c0-8.837-7.163-16-16-16z" class="colorDB2B42 svgShape"></path><path fill="#717171" d="M24.477 14.334c.111.59.171 1.209.171 1.854 0 5.044-3.377 8.631-8.476 8.631-4.878 0-8.83-3.952-8.83-8.83s3.952-8.83 8.83-8.83c2.384 0 4.376.877 5.905 2.301l-2.489 2.489v-.006c-.927-.883-2.102-1.336-3.416-1.336-2.914 0-5.281 2.461-5.281 5.375 0 2.913 2.368 5.381 5.281 5.381 2.644 0 4.442-1.512 4.813-3.587h-4.813v-3.444l8.305.002z" class="colorDB2B42 svgShape"></path></svg></g></svg>